<?xml version="1.0" encoding="UTF-8"?>
<!DOCTYPE svg PUBLIC "-//W3C//DTD SVG 1.1//EN" "http://www.w3.org/Graphics/SVG/1.1/DTD/svg11.dtd">
<svg xmlns="http://www.w3.org/2000/svg" version="1.1" width="953px" height="669px" style="shape-rendering:geometricPrecision; text-rendering:geometricPrecision; image-rendering:optimizeQuality; fill-rule:evenodd; clip-rule:evenodd" xmlns:xlink="http://www.w3.org/1999/xlink">

<g><path style="opacity:1" fill="#5093f7" d="M 635.5,392.5 C 634.5,391.833 633.5,391.167 632.5,390.5C 633.043,390.44 633.376,390.107 633.5,389.5C 580.214,295.255 527.214,200.922 474.5,106.5C 420.774,200.786 367.441,295.286 314.5,390C 314.728,390.399 315.062,390.565 315.5,390.5C 314.5,391.167 313.5,391.833 312.5,392.5C 295.46,400.104 278.627,408.104 262,416.5C 261.833,416.167 261.667,415.833 261.5,415.5C 331.812,288.875 402.646,162.542 474,36.5C 545.265,162.855 616.432,289.355 687.5,416C 685.831,416.122 684.165,415.788 682.5,415C 666.609,408.055 650.943,400.555 635.5,392.5 Z"/></g>
<g><path style="opacity:1" fill="#3f56c6" d="M 632.5,390.5 C 594.804,372.149 557.138,354.149 519.5,336.5C 529.167,335.833 538.833,335.167 548.5,334.5C 524.169,289.834 499.336,245.501 474,201.5C 448.927,244.993 424.427,288.66 400.5,332.5C 399.596,333.209 399.263,334.209 399.5,335.5C 409.348,335.173 419.014,335.506 428.5,336.5C 390.692,354.238 353.025,372.238 315.5,390.5C 315.062,390.565 314.728,390.399 314.5,390C 367.441,295.286 420.774,200.786 474.5,106.5C 527.214,200.922 580.214,295.255 633.5,389.5C 633.376,390.107 633.043,390.44 632.5,390.5 Z"/></g>
<g><path style="opacity:1" fill="#597ad4" d="M 400.5,332.5 C 409.798,334.152 419.465,335.152 429.5,335.5C 429.376,336.107 429.043,336.44 428.5,336.5C 419.014,335.506 409.348,335.173 399.5,335.5C 399.263,334.209 399.596,333.209 400.5,332.5 Z"/></g>
<g><path style="opacity:1" fill="#587ad4" d="M 548.5,334.5 C 538.833,335.167 529.167,335.833 519.5,336.5C 518.711,336.217 518.044,335.717 517.5,335C 527.828,334.5 538.161,334.334 548.5,334.5 Z"/></g>
<g><path style="opacity:1" fill="#53aef6" d="M 548.5,334.5 C 538.161,334.334 527.828,334.5 517.5,335C 518.044,335.717 518.711,336.217 519.5,336.5C 557.138,354.149 594.804,372.149 632.5,390.5C 633.5,391.167 634.5,391.833 635.5,392.5C 652.542,423.575 669.875,454.575 687.5,485.5C 687.167,485.833 686.833,486.167 686.5,486.5C 630.378,459.437 574.378,432.437 518.5,405.5C 528.341,404.833 538.341,404.167 548.5,403.5C 548.376,402.893 548.043,402.56 547.5,402.5C 523.531,358.564 499.031,314.898 474,271.5C 448.969,314.898 424.469,358.564 400.5,402.5C 399.957,402.56 399.624,402.893 399.5,403.5C 409.992,404.167 420.326,404.833 430.5,405.5C 374.17,431.667 318.17,458.334 262.5,485.5C 262.167,485.167 261.833,484.833 261.5,484.5C 278.539,453.747 295.539,423.081 312.5,392.5C 313.5,391.833 314.5,391.167 315.5,390.5C 353.025,372.238 390.692,354.238 428.5,336.5C 429.043,336.44 429.376,336.107 429.5,335.5C 419.465,335.152 409.798,334.152 400.5,332.5C 424.427,288.66 448.927,244.993 474,201.5C 499.336,245.501 524.169,289.834 548.5,334.5 Z"/></g>
<g><path style="opacity:1" fill="#b8dbf8" d="M 400.5,402.5 C 410.674,403.167 421.008,403.833 431.5,404.5C 431.376,405.107 431.043,405.44 430.5,405.5C 420.326,404.833 409.992,404.167 399.5,403.5C 399.624,402.893 399.957,402.56 400.5,402.5 Z"/></g>
<g><path style="opacity:1" fill="#b8dbf8" d="M 547.5,402.5 C 548.043,402.56 548.376,402.893 548.5,403.5C 538.341,404.167 528.341,404.833 518.5,405.5C 517.624,405.631 516.957,405.298 516.5,404.5C 526.992,403.833 537.326,403.167 547.5,402.5 Z"/></g>
<g><path style="opacity:1" fill="#abb3e4" d="M 559.5,543.5 C 552.158,542.276 544.824,542.276 537.5,543.5C 540.865,541.961 544.531,541.294 548.5,541.5C 552.469,541.294 556.135,541.961 559.5,543.5 Z"/></g>
<g><path style="opacity:1" fill="#b2bde6" d="M 807.5,542.5 C 801.131,542.347 794.797,542.68 788.5,543.5C 791.865,541.961 795.531,541.294 799.5,541.5C 802.355,541.503 805.022,541.836 807.5,542.5 Z"/></g>
<g><path style="opacity:1" fill="#aab3e4" d="M 75.5,543.5 C 68.4122,543.205 61.4122,543.538 54.5,544.5C 57.5982,543.179 61.0982,542.512 65,542.5C 68.6833,542.501 72.1833,542.835 75.5,543.5 Z"/></g>
<g><path style="opacity:1" fill="#a6b0e1" d="M 204.5,543.5 C 207.314,542.835 210.314,542.502 213.5,542.5C 216.913,542.517 219.913,543.184 222.5,544.5C 216.591,543.545 210.591,543.211 204.5,543.5 Z"/></g>
<g><path style="opacity:1" fill="#b8beea" d="M 868.5,543.5 C 861.745,542.877 855.412,543.544 849.5,545.5C 848.596,544.791 848.263,543.791 848.5,542.5C 855.354,542.176 862.021,542.509 868.5,543.5 Z"/></g>
<g><path style="opacity:1" fill="#b4bce8" d="M 923.5,544.5 C 917.266,543.193 910.932,543.193 904.5,544.5C 907.428,543.18 910.761,542.514 914.5,542.5C 917.833,542.833 921.167,543.167 924.5,543.5C 924.376,544.107 924.043,544.44 923.5,544.5 Z"/></g>
<g><path style="opacity:1" fill="#4056c6" d="M 135.5,599.5 C 136.01,605.873 139.01,610.54 144.5,613.5C 146.848,614.952 149.514,615.618 152.5,615.5C 154.369,615.493 156.036,615.16 157.5,614.5C 163.722,612.781 167.889,608.781 170,602.5C 170.5,582.836 170.667,563.169 170.5,543.5C 176.167,543.5 181.833,543.5 187.5,543.5C 187.667,563.836 187.5,584.169 187,604.5C 184.528,616.801 177.361,624.801 165.5,628.5C 157.534,629.365 149.534,629.698 141.5,629.5C 127.722,625.319 120.055,615.986 118.5,601.5C 118.5,582.167 118.5,562.833 118.5,543.5C 123.833,543.5 129.167,543.5 134.5,543.5C 134.17,562.341 134.503,581.007 135.5,599.5 Z"/></g>
<g><path style="opacity:1" fill="#4157c6" d="M 653.5,543.5 C 653.5,547.833 653.5,552.167 653.5,556.5C 642.654,556.172 631.987,556.506 621.5,557.5C 621.5,564.5 621.5,571.5 621.5,578.5C 630.652,579.494 639.985,579.827 649.5,579.5C 649.5,583.833 649.5,588.167 649.5,592.5C 639.833,592.5 630.167,592.5 620.5,592.5C 620.175,600.352 620.508,608.018 621.5,615.5C 632.167,615.5 642.833,615.5 653.5,615.5C 653.5,620.167 653.5,624.833 653.5,629.5C 637.167,629.5 620.833,629.5 604.5,629.5C 604.5,600.833 604.5,572.167 604.5,543.5C 620.833,543.5 637.167,543.5 653.5,543.5 Z"/></g>
<g><path style="opacity:1" fill="#4258c7" d="M 75.5,543.5 C 86.0647,571.187 96.0647,599.187 105.5,627.5C 100.265,629.45 94.5982,630.117 88.5,629.5C 86.8647,624.255 85.1981,618.922 83.5,613.5C 71.5,613.5 59.5,613.5 47.5,613.5C 45.8336,618.833 44.1669,624.166 42.5,629.5C 36.8333,629.5 31.1667,629.5 25.5,629.5C 25.5,628.5 25.5,627.5 25.5,626.5C 35.1771,599.133 44.8437,571.8 54.5,544.5C 61.4122,543.538 68.4122,543.205 75.5,543.5 Z"/></g>
<g><path style="opacity:1" fill="#4057c6" d="M 204.5,543.5 C 210.591,543.211 216.591,543.545 222.5,544.5C 235.081,562.661 247.414,580.994 259.5,599.5C 259.461,600.756 259.961,601.756 261,602.5C 261.5,583.17 261.667,563.836 261.5,544.5C 266.653,544.682 271.986,544.682 277.5,544.5C 277.169,571.672 277.502,598.672 278.5,625.5C 278.5,626.833 278.5,628.167 278.5,629.5C 272.463,629.829 266.463,629.496 260.5,628.5C 248.141,609.816 235.807,591.149 223.5,572.5C 223.44,571.957 223.107,571.624 222.5,571.5C 221.5,590.822 221.167,610.155 221.5,629.5C 215.833,629.5 210.167,629.5 204.5,629.5C 204.5,600.833 204.5,572.167 204.5,543.5 Z"/></g>
<g><path style="opacity:1" fill="#3f56c6" d="M 687.5,543.5 C 699.833,562.167 712.167,580.833 724.5,599.5C 724.783,600.289 725.283,600.956 726,601.5C 726.5,582.836 726.667,564.17 726.5,545.5C 731.735,543.55 737.402,542.883 743.5,543.5C 743.5,572.167 743.5,600.833 743.5,629.5C 737.409,629.789 731.409,629.455 725.5,628.5C 713.153,609.797 700.82,591.13 688.5,572.5C 688.44,571.957 688.107,571.624 687.5,571.5C 686.5,590.822 686.167,610.155 686.5,629.5C 681.167,629.5 675.833,629.5 670.5,629.5C 670.5,600.833 670.5,572.167 670.5,543.5C 676.167,543.5 681.833,543.5 687.5,543.5 Z"/></g>
<g><path style="opacity:1" fill="#4157c7" d="M 868.5,543.5 C 874.669,556.505 880.836,569.505 887,582.5C 893.067,569.935 898.9,557.269 904.5,544.5C 910.932,543.193 917.266,543.193 923.5,544.5C 914.872,562.423 905.705,580.089 896,597.5C 895.5,608.161 895.333,618.828 895.5,629.5C 889.833,629.5 884.167,629.5 878.5,629.5C 878.666,619.161 878.5,608.828 878,598.5C 868.457,580.74 858.957,563.073 849.5,545.5C 855.412,543.544 861.745,542.877 868.5,543.5 Z"/></g>
<g><path style="opacity:1" fill="#8796df" d="M 135.5,599.5 C 134.503,581.007 134.17,562.341 134.5,543.5C 129.167,543.5 123.833,543.5 118.5,543.5C 118.5,562.833 118.5,582.167 118.5,601.5C 117.503,582.007 117.17,562.34 117.5,542.5C 123.5,542.5 129.5,542.5 135.5,542.5C 135.5,561.5 135.5,580.5 135.5,599.5 Z"/></g>
<g><path style="opacity:1" fill="#c2c4eb" d="M 261.5,543.5 C 261.5,543.833 261.5,544.167 261.5,544.5C 261.667,563.836 261.5,583.17 261,602.5C 259.961,601.756 259.461,600.756 259.5,599.5C 260.167,580.833 260.833,562.167 261.5,543.5 Z"/></g>
<g><path style="opacity:1" fill="#4e6acf" d="M 261.5,544.5 C 261.5,544.167 261.5,543.833 261.5,543.5C 267.167,543.5 272.833,543.5 278.5,543.5C 278.5,570.833 278.5,598.167 278.5,625.5C 277.502,598.672 277.169,571.672 277.5,544.5C 271.986,544.682 266.653,544.682 261.5,544.5 Z"/></g>
<g><path style="opacity:1" fill="#909cdf" d="M 653.5,543.5 C 637.167,543.5 620.833,543.5 604.5,543.5C 604.5,572.167 604.5,600.833 604.5,629.5C 620.833,629.5 637.167,629.5 653.5,629.5C 637.008,630.497 620.342,630.83 603.5,630.5C 603.5,601.167 603.5,571.833 603.5,542.5C 620.342,542.17 637.008,542.503 653.5,543.5 Z"/></g>
<g><path style="opacity:1" fill="#818fd9" d="M 687.5,543.5 C 681.833,543.5 676.167,543.5 670.5,543.5C 670.5,572.167 670.5,600.833 670.5,629.5C 670.167,629.5 669.833,629.5 669.5,629.5C 669.5,600.5 669.5,571.5 669.5,542.5C 675.69,542.177 681.69,542.51 687.5,543.5 Z"/></g>
<g><path style="opacity:1" fill="#e6dff4" d="M 726.5,545.5 C 726.667,564.17 726.5,582.836 726,601.5C 725.283,600.956 724.783,600.289 724.5,599.5C 725.167,581.5 725.833,563.5 726.5,545.5 Z"/></g>
<g><path style="opacity:1" fill="#4358c7" d="M 807.5,542.5 C 821.424,544.729 831.924,552.062 839,564.5C 839.813,566.436 840.313,568.436 840.5,570.5C 833.833,570.5 827.167,570.5 820.5,570.5C 818.835,565.991 815.835,562.491 811.5,560C 795.098,553.958 783.264,558.791 776,574.5C 772.194,588.617 775.361,600.784 785.5,611C 793.509,614.89 801.842,615.557 810.5,613C 815.41,610.925 818.743,607.425 820.5,602.5C 827.354,602.176 834.021,602.509 840.5,603.5C 833.041,620.916 819.708,629.916 800.5,630.5C 778.854,629.997 764.854,619.331 758.5,598.5C 757.65,591.201 757.317,583.868 757.5,576.5C 761.297,559.369 771.631,548.369 788.5,543.5C 794.797,542.68 801.131,542.347 807.5,542.5 Z"/></g>
<g><path style="opacity:1" fill="#94a0e0" d="M 653.5,543.5 C 654.486,547.97 654.819,552.637 654.5,557.5C 643.5,557.5 632.5,557.5 621.5,557.5C 631.987,556.506 642.654,556.172 653.5,556.5C 653.5,552.167 653.5,547.833 653.5,543.5 Z"/></g>
<g><path style="opacity:1" fill="#f7f8fa" d="M 76.5,595.5 C 76.5,596.5 76.5,597.5 76.5,598.5C 68.8333,598.5 61.1667,598.5 53.5,598.5C 56.6985,586.571 60.6985,574.905 65.5,563.5C 69.5637,574.024 73.2303,584.691 76.5,595.5 Z"/></g>
<g><path style="opacity:1" fill="#8a98df" d="M 374.5,567.5 C 375.043,567.56 375.376,567.893 375.5,568.5C 368.678,569.818 362.011,569.818 355.5,568.5C 362.022,568.823 368.355,568.49 374.5,567.5 Z"/></g>
<g><path style="opacity:1" fill="#8a97de" d="M 587.5,566.5 C 588.404,567.209 588.737,568.209 588.5,569.5C 581.646,569.824 574.979,569.491 568.5,568.5C 575.255,569.123 581.588,568.456 587.5,566.5 Z"/></g>
<g><path style="opacity:1" fill="#4157c7" d="M 559.5,543.5 C 572.712,546.44 582.046,554.107 587.5,566.5C 581.588,568.456 575.255,569.123 568.5,568.5C 563.887,561.178 557.22,557.844 548.5,558.5C 535.381,558.433 526.881,564.766 523,577.5C 520.922,588.102 522.922,597.768 529,606.5C 531.279,609.381 534.112,611.381 537.5,612.5C 538.842,613.793 540.509,614.626 542.5,615C 546.689,615.812 550.689,615.645 554.5,614.5C 564.885,611.78 571.218,605.113 573.5,594.5C 563.833,594.5 554.167,594.5 544.5,594.5C 544.5,590.5 544.5,586.5 544.5,582.5C 559.833,582.5 575.167,582.5 590.5,582.5C 590.5,587.5 590.5,592.5 590.5,597.5C 586.095,614.904 575.095,625.571 557.5,629.5C 549.799,629.691 542.132,629.358 534.5,628.5C 514.966,621.178 504.966,606.845 504.5,585.5C 504.722,568.552 512.055,555.718 526.5,547C 529.893,544.924 533.56,543.758 537.5,543.5C 544.824,542.276 552.158,542.276 559.5,543.5 Z"/></g>
<g><path style="opacity:1" fill="#4258c7" d="M 496.5,627.5 C 490.926,629.453 484.926,630.12 478.5,629.5C 477.438,624.314 475.771,619.314 473.5,614.5C 461.848,613.334 450.181,613.167 438.5,614C 436.141,618.932 434.475,624.098 433.5,629.5C 427.074,630.12 421.074,629.453 415.5,627.5C 425.205,599.751 435.205,572.084 445.5,544.5C 452.5,543.167 459.5,543.167 466.5,544.5C 476.786,572.07 486.786,599.737 496.5,627.5 Z"/></g>
<g><path style="opacity:1" fill="#f6f7fb" d="M 467.5,597.5 C 463.849,598.165 460.015,598.499 456,598.5C 451.771,598.49 447.938,597.823 444.5,596.5C 447.842,585.307 451.675,574.307 456,563.5C 460.138,574.746 463.971,586.079 467.5,597.5 Z"/></g>
<g><path style="opacity:1" fill="#8f9ddf" d="M 621.5,578.5 C 631.167,578.5 640.833,578.5 650.5,578.5C 650.5,583.167 650.5,587.833 650.5,592.5C 650.167,592.5 649.833,592.5 649.5,592.5C 649.5,588.167 649.5,583.833 649.5,579.5C 639.985,579.827 630.652,579.494 621.5,578.5 Z"/></g>
<g><path style="opacity:1" fill="#8c96dd" d="M 377.5,596.5 C 377.5,591.833 377.5,587.167 377.5,582.5C 362.167,582.5 346.833,582.5 331.5,582.5C 331.5,586.5 331.5,590.5 331.5,594.5C 330.515,590.366 330.182,586.032 330.5,581.5C 346.5,581.5 362.5,581.5 378.5,581.5C 378.821,586.695 378.487,591.695 377.5,596.5 Z"/></g>
<g><path style="opacity:1" fill="#8c96de" d="M 590.5,597.5 C 590.5,592.5 590.5,587.5 590.5,582.5C 575.167,582.5 559.833,582.5 544.5,582.5C 544.5,586.5 544.5,590.5 544.5,594.5C 543.515,590.366 543.182,586.032 543.5,581.5C 559.5,581.5 575.5,581.5 591.5,581.5C 591.821,587.026 591.488,592.36 590.5,597.5 Z"/></g>
<g><path style="opacity:1" fill="#7585d4" d="M 757.5,576.5 C 757.317,583.868 757.65,591.201 758.5,598.5C 757.732,597.737 757.232,596.737 757,595.5C 756.18,588.986 756.347,582.653 757.5,576.5 Z"/></g>
<g><path style="opacity:1" fill="#9ca9e3" d="M 688.5,572.5 C 687.503,591.659 687.17,610.993 687.5,630.5C 681.31,630.823 675.31,630.49 669.5,629.5C 669.833,629.5 670.167,629.5 670.5,629.5C 675.833,629.5 681.167,629.5 686.5,629.5C 686.167,610.155 686.5,590.822 687.5,571.5C 688.107,571.624 688.44,571.957 688.5,572.5 Z"/></g>
<g><path style="opacity:1" fill="#a6afe3" d="M 223.5,572.5 C 222.833,591.5 222.167,610.5 221.5,629.5C 221.167,610.155 221.5,590.822 222.5,571.5C 223.107,571.624 223.44,571.957 223.5,572.5 Z"/></g>
<g><path style="opacity:1" fill="#b4bce8" d="M 649.5,592.5 C 649.833,592.5 650.167,592.5 650.5,592.5C 641.014,593.494 631.348,593.827 621.5,593.5C 621.5,600.833 621.5,608.167 621.5,615.5C 620.508,608.018 620.175,600.352 620.5,592.5C 630.167,592.5 639.833,592.5 649.5,592.5 Z"/></g>
<g><path style="opacity:1" fill="#bac2e8" d="M 76.5,595.5 C 77.4345,596.568 77.7678,597.901 77.5,599.5C 69.3159,599.826 61.3159,599.492 53.5,598.5C 61.1667,598.5 68.8333,598.5 76.5,598.5C 76.5,597.5 76.5,596.5 76.5,595.5 Z"/></g>
<g><path style="opacity:1" fill="#b8bfe7" d="M 444.5,596.5 C 447.938,597.823 451.771,598.49 456,598.5C 460.015,598.499 463.849,598.165 467.5,597.5C 468.043,597.56 468.376,597.893 468.5,598.5C 460.193,599.498 451.86,599.831 443.5,599.5C 443.263,598.209 443.596,597.209 444.5,596.5 Z"/></g>
<g><path style="opacity:1" fill="#bfc8ea" d="M 820.5,602.5 C 827.344,601.181 834.344,601.181 841.5,602.5C 841.376,603.107 841.043,603.44 840.5,603.5C 834.021,602.509 827.354,602.176 820.5,602.5 Z"/></g>
<g><path style="opacity:1" fill="#4258c7" d="M 374.5,567.5 C 368.355,568.49 362.022,568.823 355.5,568.5C 348.068,559.079 338.401,555.912 326.5,559C 312.007,566.494 306.507,578.327 310,594.5C 311.75,602.021 315.916,607.688 322.5,611.5C 324.617,613.655 327.284,614.655 330.5,614.5C 346.659,616.771 356.659,610.104 360.5,594.5C 350.833,594.5 341.167,594.5 331.5,594.5C 331.5,590.5 331.5,586.5 331.5,582.5C 346.833,582.5 362.167,582.5 377.5,582.5C 377.5,587.167 377.5,591.833 377.5,596.5C 371.324,618.812 356.49,630.145 333,630.5C 310.268,628.289 296.601,615.955 292,593.5C 289.225,568.189 299.725,551.355 323.5,543C 341.231,539.465 356.398,543.965 369,556.5C 371.904,559.642 373.738,563.309 374.5,567.5 Z"/></g>
<g><path style="opacity:1" fill="#97a1df" d="M 322.5,611.5 C 325.397,612.129 328.064,613.129 330.5,614.5C 327.284,614.655 324.617,613.655 322.5,611.5 Z"/></g>
<g><path style="opacity:1" fill="#8695da" d="M 144.5,613.5 C 148.798,614.2 153.131,614.533 157.5,614.5C 156.036,615.16 154.369,615.493 152.5,615.5C 149.514,615.618 146.848,614.952 144.5,613.5 Z"/></g>
<g><path style="opacity:1" fill="#8997db" d="M 537.5,612.5 C 543.012,614.123 548.678,614.79 554.5,614.5C 550.689,615.645 546.689,615.812 542.5,615C 540.509,614.626 538.842,613.793 537.5,612.5 Z"/></g>
<g><path style="opacity:1" fill="#b6c0e7" d="M 25.5,626.5 C 25.5,627.5 25.5,628.5 25.5,629.5C 31.1667,629.5 36.8333,629.5 42.5,629.5C 36.69,630.49 30.69,630.823 24.5,630.5C 24.2322,628.901 24.5655,627.568 25.5,626.5 Z"/></g>
<g><path style="opacity:1" fill="#b8c0e8" d="M 105.5,627.5 C 106.404,628.209 106.737,629.209 106.5,630.5C 100.31,630.823 94.31,630.49 88.5,629.5C 94.5982,630.117 100.265,629.45 105.5,627.5 Z"/></g>
<g><path style="opacity:1" fill="#8290da" d="M 165.5,628.5 C 164.737,629.268 163.737,629.768 162.5,630C 155.321,630.821 148.321,630.655 141.5,629.5C 149.534,629.698 157.534,629.365 165.5,628.5 Z"/></g>
<g><path style="opacity:1" fill="#bcc4e9" d="M 415.5,627.5 C 421.074,629.453 427.074,630.12 433.5,629.5C 427.355,630.49 421.022,630.823 414.5,630.5C 414.263,629.209 414.596,628.209 415.5,627.5 Z"/></g>
<g><path style="opacity:1" fill="#bbc3e8" d="M 496.5,627.5 C 497.404,628.209 497.737,629.209 497.5,630.5C 490.978,630.823 484.645,630.49 478.5,629.5C 484.926,630.12 490.926,629.453 496.5,627.5 Z"/></g>
<g><path style="opacity:1" fill="#8d97df" d="M 534.5,628.5 C 542.132,629.358 549.799,629.691 557.5,629.5C 551.013,630.654 544.346,630.821 537.5,630C 536.263,629.768 535.263,629.268 534.5,628.5 Z"/></g>
<g><path style="opacity:1" fill="#bac3e9" d="M 725.5,628.5 C 731.409,629.455 737.409,629.789 743.5,629.5C 740.686,630.165 737.686,630.498 734.5,630.5C 731.087,630.483 728.087,629.816 725.5,628.5 Z"/></g>
</svg>
